<svg width="512" height="384" viewBox="0 0 512 384" xmlns="http://www.w3.org/2000/svg" style="background: #FFFFFF">
        <g class="brandname" transform="translate(128, 181.1643470356099) scale(0.5828190269742343)" style="fill: #181818">
                   <svg xmlns="http://www.w3.org/2000/svg" width="439.24441061756454" height="49.18359375" viewBox="4.5703125 -48.33984375 439.24441061756454 49.18359375"><path d="M7.31-11.71C17.09-6.82 26.40-4.36 37.13-4.36C45.67-4.36 56.81-6.01 58.89-12.23C62.19-22.04 49.57-22.92 38.14-21.09C26.54-19.16 12.45-21.02 11.32-31.78C10.41-39.97 21.80-46.48 34.03-46.27C43.45-46.09 51.82-44.44 59.45-41.84L57.90-37.30C51.40-39.27 44.51-41.27 33.96-41.41C24.36-41.59 15.57-37.48 16.84-31.68C18.35-24.75 28.79-24.71 37.30-26.05C53.12-28.72 69.26-24.75 63.88-10.65C60.47-1.65 47.99 0.70 36.88 0.70C26.16 0.70 14.38-2.04 4.57-6.79ZM82.55-37.48L87.12-37.48L87.12-46.48L82.55-46.48ZM91.93 0.70C90.32 0.70 88.84 0.35 87.57-0.39C87.57-0.39 84.59-2.81 83.74-4.85C82.97-6.79 82.55-9.21 82.55-12.13L82.55-22.68C80.72-19.30 79.00-16.91 76.61-14.52L74.07-17.05C81.49-24.47 82.58-33.40 82.58-33.47L87.12-33.40L87.12-12.13C87.12-6.93 88.56-5.03 89.79-4.36C90.77-3.83 92.11-3.73 93.76-4.08C95.52-4.46 97.63-5.38 99.84-6.75L102.23-2.85C99.56-1.20 97.03-0.11 94.71 0.39C93.76 0.60 92.81 0.70 91.93 0.70ZM157.08-17.72C155.18-27.35 149.41-33.43 139.96-33.43C136.51-33.43 133.38-32.24 130.46-29.74C126.07-26.05 122.84-17.40 118.09-15.19L118.09-33.40L113.66-34.21C113.66-31.78 109.86-20.64 105.57-16.14L108.14-13.57C109.86-15.29 112.01-18.70 113.52-23.34L113.52 0L118.09 0L118.09-10.76C127.79-12.94 129.76-28.86 139.96-28.86C149.55-28.86 153.25-20.64 153.25-9.70L153.25 0L157.82 0L157.82-9.70C157.82-12.55 157.57-15.26 157.08-17.72ZM194.41 0.74C181.20 0.74 166.61-5.38 166.61-16.38C166.61-27.25 181.20-33.54 194.41-33.54C201.30-33.54 208.79-31.96 214.24-28.51L211.71-24.50C207-27.49 200.46-28.83 194.41-28.83C184.11-28.83 171.35-24.22 171.35-16.38C171.35-8.51 183.90-3.94 194.41-3.94C200.25-3.94 207.04-5.31 211.71-8.23L214.24-4.25C208.79-0.84 201.30 0.74 194.41 0.74ZM250.14 0.84C237.20 0.84 225.95-5.38 227.04-16.66C225.32-17.75 223.77-18.98 222.33-20.46L225.25-23.55C226.05-22.75 226.93-21.97 227.85-21.30C231.36-29.43 240.36-33.96 249.54-33.96C259.24-33.96 272.85-31.36 272.85-22.32C272.85-13.61 261.53-11.46 251.26-11.46C244.13-11.46 237.30-12.02 231.61-14.31C232.63-6.79 241.35-3.76 250.14-3.76C255.76-3.76 260.23-4.96 262.97-6.01C265.85-7.07 267.47-8.09 267.47-8.09L270-4.25C269.68-4.04 262.23 0.84 250.14 0.84ZM232.07-18.81C237.41-16.35 244.02-16.10 251.26-16.10C257.73-16.10 268.28-17.02 268.28-22.32C268.28-27.60 256.54-29.32 249.54-29.32C241.91-29.32 234.28-25.35 232.07-18.81ZM318.66-30.02C316.86-32.73 313.95-34.31 310.61-34.66C304.80-35.19 300.06-32.80 296.30-28.90C295.21-27.77 294.33-26.51 293.59-25.17L293.59-33.40L289.02-33.40C289.02-29.21 284.34-24.36 279.88-24.36L279.88-20.85C283.36-20.85 286.45-21.52 289.02-24.93L289.02 0L293.59 0L293.59-16.52C293.63-16.52 294.19-20.07 297.28-23.70C300.62-27.60 305.16-30.62 310.15-30.09C314.51-29.74 316.65-26.23 315.28-21.87L319.61-20.43C320.77-23.94 320.41-27.35 318.66-30.02ZM355.11 0.84C342.18 0.84 330.93-5.38 332.02-16.66C330.29-17.75 328.75-18.98 327.30-20.46L330.22-23.55C331.03-22.75 331.91-21.97 332.82-21.30C336.34-29.43 345.34-33.96 354.52-33.96C364.22-33.96 377.82-31.36 377.82-22.32C377.82-13.61 366.50-11.46 356.24-11.46C349.10-11.46 342.28-12.02 336.59-14.31C337.61-6.79 346.32-3.76 355.11-3.76C360.74-3.76 365.20-4.96 367.95-6.01C370.83-7.07 372.45-8.09 372.45-8.09L374.98-4.25C374.66-4.04 367.21 0.84 355.11 0.84ZM337.04-18.81C342.39-16.35 349.00-16.10 356.24-16.10C362.71-16.10 373.25-17.02 373.25-22.32C373.25-27.60 361.51-29.32 354.52-29.32C346.89-29.32 339.26-25.35 337.04-18.81ZM388.02-30.52L392.20-29.92L396.21-47.74L389.92-48.34ZM400.08-4.99C407.36-0.95 414.91 0.56 421.91 0.70C428.94 0.81 443.64 0.18 443.81-10.41C443.99-20.29 433.69-20.00 431.51-20.04C429.29-20.07 421.00-18.67 416.60-18.74C412.24-18.81 407.21-19.83 407.29-23.84C407.36-27.84 414.04-30.06 419.66-29.95C425.95-29.85 431.16-29.39 438.01-26.79L439.56-30.38C434.39-33.15 425.04-33.89 420.89-33.96C414.81-34.07 402.61-32.31 402.47-23.63C402.29-14.94 412.59-14.24 417.34-14.17C421.14-14.10 426.38-15.47 430.49-15.40C434.60-15.33 438.96-14.10 438.89-10.55C438.86-7.03 433.23-4.01 426.55-3.59C419.70-3.16 413.33-3.52 402.29-8.82Z"></path></svg>
                </g><g class="slogan" transform="translate(256, 174.17051871191907) scale(1)" style="fill: #181818">
                   <svg xmlns="http://www.w3.org/2000/svg" width="0" height="0" viewBox="0 0 0 0"><path d=""></path></svg>
                </g>
    </svg>